<?xml version="1.0" ?><!DOCTYPE svg  PUBLIC '-//W3C//DTD SVG 1.1//EN'  'http://www.w3.org/Graphics/SVG/1.1/DTD/svg11.dtd'><svg enable-background="new 0 0 512 512" height="512px" id="Calque_2" version="1.1" viewBox="0 0 512 512" width="512px" xml:space="preserve" xmlns="http://www.w3.org/2000/svg" xmlns:xlink="http://www.w3.org/1999/xlink"><g><linearGradient gradientUnits="userSpaceOnUse" id="SVGID_1_" x1="255.9993" x2="255.9993" y1="226.5706" y2="433.9216"><stop offset="0" style="stop-color:#FF3C00"/><stop offset="1" style="stop-color:#FF9700"/></linearGradient><path d="M256,433.921c22.47,0,40.746-18.278,40.746-40.746V226.571h-81.492v166.604   C215.254,415.643,233.533,433.921,256,433.921z M264.468,295.985c12.005,0,21.772,9.768,21.772,21.774   c0,12.004-9.766,21.771-21.772,21.771c-12.006,0-21.772-9.767-21.771-21.771C242.696,305.754,252.462,295.985,264.468,295.985z    M245.657,358.798c9.919,0,17.989,8.067,17.989,17.986s-8.07,17.989-17.989,17.989s-17.989-8.07-17.989-17.989   S235.738,358.798,245.657,358.798z" fill="url(#SVGID_1_)"/><linearGradient gradientUnits="userSpaceOnUse" id="SVGID_2_" x1="245.657" x2="245.657" y1="369.7971" y2="383.7727"><stop offset="0" style="stop-color:#FF3C00"/><stop offset="1" style="stop-color:#FF9700"/></linearGradient><path d="M245.657,383.773c3.854,0,6.989-3.135,6.989-6.989c0-3.852-3.135-6.986-6.989-6.986   c-3.854,0-6.989,3.135-6.989,6.986C238.668,380.637,241.803,383.773,245.657,383.773z" fill="url(#SVGID_2_)"/><linearGradient gradientUnits="userSpaceOnUse" id="SVGID_3_" x1="256.0022" x2="256.0022" y1="77.2971" y2="456.7517"><stop offset="0" style="stop-color:#FF3C00"/><stop offset="1" style="stop-color:#FF9700"/></linearGradient><path d="M194.182,394.931c0,34.088,27.73,61.82,61.818,61.82s61.82-27.732,61.82-61.82l0.002-317.634   H194.182V394.931z M204.254,215.571h103.492v177.605c0,28.533-23.213,51.746-51.746,51.746c-28.532,0-51.746-23.213-51.746-51.747   V215.571z" fill="url(#SVGID_3_)"/><linearGradient gradientUnits="userSpaceOnUse" id="SVGID_4_" x1="264.4685" x2="264.4685" y1="306.9836" y2="328.5286"><stop offset="0" style="stop-color:#FF3C00"/><stop offset="1" style="stop-color:#FF9700"/></linearGradient><path d="M264.468,328.529c5.94,0,10.772-4.833,10.772-10.771c0-5.941-4.832-10.774-10.772-10.774   c-5.939,0-10.772,4.833-10.771,10.774C253.696,323.697,258.529,328.529,264.468,328.529z" fill="url(#SVGID_4_)"/><linearGradient gradientUnits="userSpaceOnUse" id="SVGID_5_" x1="255.9993" x2="255.9993" y1="55.2493" y2="66.2971"><stop offset="0" style="stop-color:#FF3C00"/><stop offset="1" style="stop-color:#FF9700"/></linearGradient><path d="M328.491,55.249H183.509c-2.148,0-3.964,2.528-3.964,5.523c0,2.994,1.817,5.524,3.964,5.524h144.982   c2.149,0,3.964-2.53,3.964-5.524C332.455,57.778,330.639,55.249,328.491,55.249z" fill="url(#SVGID_5_)"/><linearGradient gradientUnits="userSpaceOnUse" id="SVGID_6_" x1="255.9993" x2="255.9993" y1="6.5002" y2="505.5007"><stop offset="0" style="stop-color:#FF3C00"/><stop offset="1" style="stop-color:#FF9700"/></linearGradient><path d="M438.5,6.5h-365c-35.841,0-65,29.159-65,65v369c0,35.841,29.159,65,65,65h365   c35.842,0,65-29.159,65-65v-369C503.5,35.659,474.342,6.5,438.5,6.5z M328.82,77.278v317.653c0,40.153-32.667,72.82-72.82,72.82   c-40.151,0-72.818-32.667-72.818-72.82V77.278c-8.1-0.193-14.637-7.516-14.637-16.505c0-9.11,6.713-16.523,14.964-16.523h144.982   c8.251,0,14.964,7.413,14.964,16.523C343.455,69.761,336.918,77.082,328.82,77.278z" fill="url(#SVGID_6_)"/></g></svg>